<svg width="24" height="24" viewBox="0 0 24 24" fill="none" xmlns="http://www.w3.org/2000/svg">
<path fill-rule="evenodd" clip-rule="evenodd" d="M8.64125 7.18415C8.64125 7.73643 9.14961 8.2448 9.7019 8.2448L14.5659 8.03769L6.37348 16.2301C5.98295 16.6206 5.98295 17.2538 6.37348 17.6443C6.764 18.0348 7.39717 18.0348 7.78769 17.6443L15.9801 9.45191L15.7123 14.2552C15.7123 14.8075 16.2207 15.3159 16.773 15.3159C17.3253 15.3159 17.8336 14.8075 17.8336 14.2552L17.9801 7.03769C17.9801 6.77248 17.8747 6.51812 17.6872 6.33059C17.4996 6.14305 17.2453 6.03769 16.9801 6.03769L9.7019 6.12348C9.14962 6.12348 8.64125 6.63186 8.64125 7.18415Z" fill="#111111"/>
</svg>
