<svg width="32" height="32" viewBox="0 0 32 32" fill="none" xmlns="http://www.w3.org/2000/svg">
<path d="M26.4245 14.5369C28.2198 14.5369 29.6752 13.078 29.6752 11.2783C29.6752 9.4786 28.2198 8.01965 26.4245 8.01965C24.6292 8.01965 23.1738 9.4786 23.1738 11.2783C23.1738 13.078 24.6292 14.5369 26.4245 14.5369Z" fill="#21BDDB"/>
<path fill-rule="evenodd" clip-rule="evenodd" d="M13.2623 20.6262C13.0672 20.4991 12.5118 19.7526 10.9757 16.0751C10.8798 15.8444 10.7906 15.6455 10.7063 15.4749L10.3919 14.7158L7.69997 8.1994H2.31439L5.00718 14.7158L7.69997 21.2365L10.1868 27.2555C10.2038 27.2961 10.2325 27.3308 10.2691 27.3552C10.3058 27.3796 10.3488 27.3926 10.3928 27.3926C10.4367 27.3926 10.4798 27.3796 10.5164 27.3552C10.553 27.3308 10.5817 27.2961 10.5987 27.2555L13.3049 20.7616C13.3145 20.7376 13.3155 20.711 13.3078 20.6863C13.3 20.6616 13.284 20.6404 13.2623 20.6262Z" fill="#282828"/>
<path fill-rule="evenodd" clip-rule="evenodd" d="M23.3514 20.6262C23.1562 20.4991 22.6008 19.7526 21.0647 16.0751C20.9688 15.8444 20.8787 15.6455 20.7945 15.4741L20.4818 14.7158L17.789 8.1994H12.4034L15.0962 14.7158L17.789 21.2365L20.2758 27.2555C20.2929 27.2961 20.3215 27.3308 20.3582 27.3552C20.3948 27.3796 20.4378 27.3926 20.4818 27.3926C20.5258 27.3926 20.5688 27.3796 20.6054 27.3552C20.642 27.3308 20.6707 27.2961 20.6878 27.2555L23.3939 20.7625C23.4034 20.7383 23.4044 20.7116 23.3966 20.6868C23.3889 20.662 23.3729 20.6406 23.3514 20.6262Z" fill="#282828"/>
</svg>
