<svg width="32" height="32" viewBox="0 0 32 32" fill="none" xmlns="http://www.w3.org/2000/svg">
<path d="M16.9848 14.6966L11.0792 8.8428C10.9634 8.73086 10.8534 8.80837 10.8534 8.93756V25.9101L5.52412 20.6277V8.93756C5.52121 7.86547 5.84175 6.817 6.44456 5.92687C7.04736 5.03673 7.90489 4.34559 8.90698 3.94224C9.89675 3.52732 10.9889 3.41438 12.0437 3.61784C13.1071 3.82833 14.0832 4.34803 14.8473 5.11067L16.9848 7.22648V14.6966Z" fill="#111111"/>
<path d="M10.8534 14.4984V25.9101L5.52411 20.6277C5.52411 20.6277 10.8534 22.5655 10.8534 14.4984Z" fill="#111111"/>
<path d="M15.6496 13.373L11.0792 8.8428C10.9634 8.73085 10.8534 8.80837 10.8534 8.93756V25.9101L8.15107 23.2287V10.7031C8.15107 6.38834 12.3594 6.69251 12.3594 6.69251C12.3594 6.69251 15.2615 10.3356 15.6496 13.373Z" fill="#111111"/>
<path d="M10.8534 14.4984V25.9101L8.15107 23.2287V20.6019C9.49496 20.0937 10.8534 18.5722 10.8534 14.4984Z" fill="#111111"/>
<path d="M13.8481 11.5902L11.0792 8.84281C10.9634 8.73086 10.8534 8.80838 10.8534 8.93756V11.128C10.8534 8.28296 5.47775 7.22648 5.52411 13.5797V8.93782C5.52237 7.91087 5.81679 6.90483 6.37268 6.03823C8.20894 5.58463 11.1197 6.77033 13.0371 6.99994C15.5945 7.30717 14.3839 10.5857 14.0739 11.3752C14.053 11.4243 14.0221 11.4687 13.9833 11.5057C13.9445 11.5426 13.8985 11.5714 13.8481 11.5902V11.5902Z" fill="#111111"/>
<path d="M13.8481 11.5902L11.0792 8.8428C10.9634 8.73085 10.8534 8.80837 10.8534 8.93755V11.128C10.8458 10.8258 10.7782 10.528 10.6544 10.2516C10.5307 9.97528 10.3531 9.72585 10.132 9.5176C9.91087 9.30935 9.65048 9.14637 9.36574 9.03797C9.081 8.92957 8.7775 8.87788 8.47259 8.88588C8.74405 8.27658 9.17899 7.7528 9.73003 7.37162C10.2811 6.99044 10.9271 6.76648 11.5977 6.72412C11.9221 6.80159 12.2378 6.87049 12.5361 6.92506C13.2727 7.90612 13.9275 8.94499 14.494 10.0314C14.3877 10.4889 14.2474 10.938 14.074 11.3749C14.053 11.4241 14.0222 11.4686 13.9834 11.5056C13.9445 11.5426 13.8985 11.5714 13.8481 11.5902V11.5902Z" fill="#111111"/>
<path d="M16.9848 14.6966L11.0792 8.8428C7.97727 5.76812 5.52412 7.22649 5.52412 11.2371V8.93756C5.52121 7.86547 5.84175 6.817 6.44456 5.92687C7.04736 5.03673 7.90489 4.34559 8.90698 3.94224C9.89675 3.52732 10.9889 3.41438 12.0437 3.61784C13.1071 3.82833 14.0832 4.34803 14.8473 5.11067L16.9848 7.22648V14.6966Z" fill="#111111"/>
<path d="M7.85565 7.19782C6.43937 7.29538 5.52412 8.79114 5.52412 11.2371V8.93756C5.52121 7.86547 5.84175 6.817 6.44456 5.92687C7.04736 5.03673 7.90489 4.34559 8.90698 3.94224C9.89675 3.52732 10.9889 3.41438 12.0437 3.61784C12.933 3.79381 13.7642 4.18649 14.4621 4.76045C14.4592 4.76045 9.81067 3.14413 7.85565 7.19782Z" fill="#111111"/>
<path d="M16.9848 14.6966L11.0792 8.8428C7.97727 5.76812 5.52412 7.22649 5.52412 11.2371V8.93756C5.52121 7.86547 5.84175 6.817 6.44456 5.92686C7.04736 5.03673 7.90489 4.34559 8.90698 3.94224C9.75643 3.58608 10.6838 3.45165 11.6006 3.55177C9.06051 3.5202 9.00839 5.67913 10.9084 7.02269C11.5426 7.47343 14.914 10.6833 16.9848 12.6697V14.6966Z" fill="#111111"/>
<path d="M7.85565 7.19781C6.43938 7.29538 5.52412 8.79113 5.52412 11.2371V8.93756C5.52121 7.86547 5.84175 6.817 6.44456 5.92686C7.04736 5.03673 7.90489 4.34559 8.90698 3.94224C9.75643 3.58608 10.6838 3.45165 11.6006 3.55177C10.0945 3.53168 9.46599 4.28389 9.59632 5.17697C8.83365 5.67236 8.22971 6.37351 7.85565 7.19781V7.19781Z" fill="#111111"/>
<path d="M14.8498 18.4406L20.7558 24.2945C20.8716 24.4064 20.9817 24.329 20.9817 24.1997V7.22675L26.311 12.5093V24.1997C26.3139 25.2718 25.9934 26.3203 25.3905 27.2105C24.7877 28.1006 23.9302 28.7918 22.9281 29.1952C21.9338 29.6131 20.8358 29.7251 19.7765 29.5168C18.7173 29.3085 17.7456 28.7894 16.9876 28.0269L14.85 25.911L14.8498 18.4406Z" fill="#111111"/>
<path d="M20.9815 18.6387V7.22675L26.3108 12.5093C26.3108 12.5093 20.9815 10.5714 20.9815 18.6387Z" fill="#111111"/>
<path d="M16.185 19.7643L20.7555 24.2946C20.8714 24.4066 20.9815 24.3291 20.9815 24.1999V7.22675L23.6838 9.9082V22.4341C23.6838 26.7489 19.4754 26.4448 19.4754 26.4448C19.4754 26.4448 16.5731 22.8018 16.185 19.7643Z" fill="#111111"/>
<path d="M20.9815 18.6387V7.22675L23.6838 9.9082V12.5351C22.3399 13.0433 20.9815 14.5649 20.9815 18.6387Z" fill="#111111"/>
<path d="M17.9866 21.547L20.7556 24.2945C20.8714 24.4064 20.9815 24.329 20.9815 24.1997V22.0092C20.9815 24.8543 26.3572 25.9108 26.3108 19.5574V24.1997C26.3125 25.2267 26.0181 26.2328 25.4622 27.0994C23.6259 27.553 20.7151 26.3673 18.7977 26.1376C16.2402 25.8304 17.4509 22.5518 17.7605 21.7623C17.7815 21.7131 17.8124 21.6686 17.8512 21.6316C17.8901 21.5946 17.9362 21.5658 17.9866 21.547V21.547Z" fill="#111111"/>
<path d="M17.9866 21.547L20.7555 24.2945C20.8714 24.4064 20.9815 24.329 20.9815 24.1997V22.0092C20.989 22.3114 21.0567 22.6092 21.1805 22.8856C21.3042 23.1619 21.4818 23.4113 21.7029 23.6196C21.924 23.8279 22.1844 23.9908 22.4691 24.0993C22.7539 24.2077 23.0574 24.2594 23.3623 24.2514C23.0908 24.8607 22.6558 25.3845 22.1048 25.7657C21.5537 26.1469 20.9077 26.3709 20.2371 26.4132C19.9127 26.3357 19.597 26.2668 19.2987 26.2123C18.5621 25.2312 17.9072 24.1923 17.3407 23.1059C17.447 22.6484 17.5873 22.1993 17.7607 21.7623C17.7816 21.7131 17.8125 21.6686 17.8513 21.6316C17.8902 21.5946 17.9362 21.5658 17.9866 21.547V21.547Z" fill="#111111"/>
<path d="M14.8498 18.4406L20.7558 24.2945C23.8578 27.3693 26.311 25.9108 26.311 21.9001V24.1997C26.3139 25.2718 25.9934 26.3203 25.3905 27.2105C24.7877 28.1007 23.9302 28.7918 22.9281 29.1952C21.9338 29.6131 20.8358 29.7251 19.7765 29.5168C18.7173 29.3085 17.7456 28.7894 16.9876 28.0269L14.85 25.9111L14.8498 18.4406Z" fill="#111111"/>
<path d="M23.9792 25.9395C25.3956 25.842 26.3108 24.3462 26.3108 21.8999V24.1995C26.3137 25.2716 25.9932 26.3201 25.3903 27.2103C24.7875 28.1005 23.93 28.7916 22.9278 29.195C21.9381 29.6099 20.8459 29.7229 19.7911 29.5194C18.9017 29.3434 18.0706 28.9508 17.3726 28.3768C17.3755 28.377 22.0242 29.9932 23.9792 25.9395Z" fill="#111111"/>
<path d="M14.8498 18.4406L20.7558 24.2945C23.8578 27.3693 26.311 25.9108 26.311 21.9001V24.1997C26.3139 25.2718 25.9934 26.3203 25.3905 27.2105C24.7877 28.1007 23.9302 28.7918 22.9281 29.1952C22.0786 29.5513 21.1512 29.6858 20.2344 29.5856C22.7745 29.6172 22.8266 27.4583 20.9266 26.1146C20.2923 25.6639 16.9209 22.4541 14.85 20.4675L14.8498 18.4406Z" fill="#111111"/>
<path d="M23.9792 25.9395C25.3956 25.842 26.3108 24.3462 26.3108 21.8999V24.1995C26.3137 25.2716 25.9932 26.3201 25.3903 27.2103C24.7875 28.1005 23.93 28.7916 22.9278 29.195C22.0784 29.5511 21.151 29.6856 20.2342 29.5854C21.7403 29.6055 22.3688 28.8533 22.2385 27.9603C23.0012 27.4649 23.6051 26.7638 23.9792 25.9395V25.9395Z" fill="#111111"/>
</svg>
