<svg width="32" height="32" viewBox="0 0 32 32" fill="none" xmlns="http://www.w3.org/2000/svg">
<path d="M17.6193 14.4294L10.9084 7.70838C10.7768 7.57985 10.6518 7.66886 10.6518 7.81718V27.3042L4.59581 21.2392V7.81718C4.59251 6.58626 4.95676 5.38246 5.64176 4.36046C6.32677 3.33845 7.30124 2.54492 8.43997 2.08182C9.56471 1.60542 10.8057 1.47575 12.0044 1.70935C13.2129 1.95102 14.322 2.54772 15.1904 3.42335L17.6193 5.85261V14.4294Z" fill="url(#paint0_linear_91_1655)"/>
<path d="M10.6515 14.2018V27.3042L4.59558 21.2392C4.59558 21.2392 10.6515 23.4641 10.6515 14.2018Z" fill="url(#paint1_linear_91_1655)"/>
<path d="M16.1018 12.9097L10.9082 7.70837C10.7766 7.57984 10.6515 7.66885 10.6515 7.81717V27.3042L7.58076 24.2255V9.84433C7.58076 4.89029 12.363 5.23952 12.363 5.23952C12.363 5.23952 15.6608 9.42237 16.1018 12.9097Z" fill="url(#paint2_linear_91_1655)"/>
<path d="M10.6515 14.2018V27.3042L7.58076 24.2255V21.2095C9.10791 20.6261 10.6515 18.8791 10.6515 14.2018Z" fill="url(#paint3_linear_91_1655)"/>
<path d="M14.0547 10.8628L10.9082 7.70838C10.7766 7.57985 10.6515 7.66886 10.6515 7.81718V10.3322C10.6515 7.0656 4.5429 5.85261 4.59558 13.1471V7.81747C4.5936 6.63838 4.92817 5.4833 5.55986 4.48832C7.64653 3.96752 10.9542 5.32888 13.1331 5.5925C16.0392 5.94524 14.6635 9.70949 14.3113 10.6159C14.2874 10.6724 14.2524 10.7233 14.2083 10.7658C14.1642 10.8082 14.1119 10.8412 14.0547 10.8628V10.8628Z" fill="url(#paint4_linear_91_1655)"/>
<path d="M14.0547 10.8628L10.9082 7.70837C10.7766 7.57984 10.6515 7.66884 10.6515 7.81717V10.3322C10.643 9.98512 10.5662 9.64318 10.4255 9.32591C10.2848 9.00863 10.0831 8.72225 9.83182 8.48315C9.58054 8.24404 9.28464 8.05691 8.96107 7.93246C8.6375 7.808 8.29261 7.74866 7.94612 7.75784C8.2546 7.05827 8.74885 6.4569 9.37503 6.01925C10.0012 5.58159 10.7353 5.32445 11.4974 5.27582C11.866 5.36476 12.2248 5.44387 12.5637 5.50653C13.4008 6.63293 14.1448 7.8257 14.7886 9.07302C14.6679 9.59835 14.5084 10.114 14.3114 10.6156C14.2876 10.6721 14.2525 10.7232 14.2084 10.7656C14.1643 10.8081 14.112 10.8412 14.0547 10.8628V10.8628Z" fill="url(#paint5_linear_91_1655)"/>
<path d="M17.6193 14.4294L10.9084 7.70838C7.38348 4.1782 4.59581 5.85261 4.59581 10.4574V7.81718C4.59251 6.58626 4.95676 5.38246 5.64176 4.36046C6.32677 3.33845 7.30124 2.54492 8.43997 2.08182C9.56471 1.60542 10.8057 1.47575 12.0044 1.70935C13.2129 1.95102 14.322 2.54772 15.1904 3.42335L17.6193 5.85261V14.4294Z" fill="url(#paint6_linear_91_1655)"/>
<path d="M7.24528 5.8197C5.63588 5.93171 4.59581 7.64906 4.59581 10.4574V7.81718C4.59251 6.58626 4.95676 5.38246 5.64176 4.36046C6.32677 3.33845 7.30124 2.54492 8.43997 2.08182C9.56471 1.60542 10.8057 1.47575 12.0044 1.70935C13.015 1.9114 13.9595 2.36225 14.7527 3.02124C14.7493 3.02124 9.46689 1.16546 7.24528 5.8197Z" fill="url(#paint7_linear_91_1655)"/>
<path d="M17.6191 14.4294L10.9082 7.70839C7.38326 4.1782 4.59559 5.85262 4.59559 10.4574V7.81718C4.59229 6.58626 4.95654 5.38247 5.64154 4.36046C6.32655 3.33846 7.30102 2.54493 8.43975 2.08182C9.40504 1.6729 10.4589 1.51855 11.5006 1.63351C8.61422 1.59726 8.55499 4.07602 10.714 5.61863C11.4348 6.13615 15.2659 9.82152 17.6191 12.1022V14.4294Z" fill="url(#paint8_linear_91_1655)"/>
<path d="M7.24506 5.8197C5.63565 5.93172 4.59559 7.64907 4.59559 10.4574V7.81718C4.59229 6.58627 4.95654 5.38247 5.64154 4.36046C6.32655 3.33846 7.30102 2.54493 8.43975 2.08182C9.40504 1.6729 10.4589 1.51855 11.5006 1.63351C9.78922 1.61044 9.07499 2.47409 9.22309 3.49947C8.35642 4.06826 7.67013 4.87328 7.24506 5.8197V5.8197Z" fill="#0075C2"/>
<path d="M15.193 18.7281L21.9043 25.4492C22.0359 25.5777 22.161 25.4888 22.161 25.3404V5.85291L28.2171 11.9181V25.3404C28.2204 26.5713 27.8561 27.7752 27.1711 28.7972C26.486 29.8192 25.5116 30.6128 24.3728 31.0759C23.243 31.5557 21.9952 31.6844 20.7915 31.4452C19.5878 31.206 18.4836 30.61 17.6222 29.7346L15.1932 27.3053L15.193 18.7281Z" fill="url(#paint9_linear_91_1655)"/>
<path d="M22.1608 18.9555V5.85291L28.2168 11.9181C28.2168 11.9181 22.1608 9.69302 22.1608 18.9555Z" fill="url(#paint10_linear_91_1655)"/>
<path d="M16.7103 20.2479L21.904 25.4494C22.0357 25.5779 22.1608 25.489 22.1608 25.3406V5.85291L25.2316 8.93161V23.3132C25.2316 28.2673 20.4493 27.9181 20.4493 27.9181C20.4493 27.9181 17.1513 23.7354 16.7103 20.2479Z" fill="url(#paint11_linear_91_1655)"/>
<path d="M22.1608 18.9555V5.85291L25.2316 8.93161V11.9477C23.7044 12.5311 22.1608 14.2782 22.1608 18.9555Z" fill="url(#paint12_linear_91_1655)"/>
<path d="M18.7575 22.2947L21.904 25.4492C22.0357 25.5777 22.1608 25.4888 22.1608 25.3404V22.8254C22.1608 26.092 28.2695 27.305 28.2168 20.0104V25.3404C28.2188 26.5195 27.8842 27.6747 27.2526 28.6697C25.1658 29.1905 21.858 27.8291 19.6792 27.5654C16.7729 27.2127 18.1487 23.4484 18.5006 22.5419C18.5245 22.4854 18.5595 22.4343 18.6037 22.3918C18.6479 22.3493 18.7002 22.3163 18.7575 22.2947V22.2947Z" fill="url(#paint13_linear_91_1655)"/>
<path d="M18.7575 22.2947L21.904 25.4492C22.0357 25.5778 22.1608 25.4888 22.1608 25.3404V22.8254C22.1694 23.1724 22.2462 23.5143 22.3869 23.8316C22.5275 24.1489 22.7293 24.4353 22.9806 24.6744C23.2319 24.9135 23.5277 25.1006 23.8513 25.2251C24.1749 25.3496 24.5197 25.409 24.8662 25.3998C24.5577 26.0994 24.0634 26.7008 23.4372 27.1384C22.811 27.5761 22.0769 27.8332 21.3149 27.8819C20.9462 27.7929 20.5875 27.7138 20.2485 27.6511C19.4114 26.5247 18.6673 25.3319 18.0235 24.0846C18.1443 23.5592 18.3038 23.0436 18.5008 22.5419C18.5246 22.4854 18.5596 22.4344 18.6038 22.3919C18.6479 22.3494 18.7002 22.3163 18.7575 22.2947V22.2947Z" fill="url(#paint14_linear_91_1655)"/>
<path d="M15.193 18.7281L21.9043 25.4492C25.4293 28.9795 28.2171 27.305 28.2171 22.7001V25.3404C28.2204 26.5714 27.8561 27.7752 27.1711 28.7972C26.486 29.8192 25.5116 30.6128 24.3728 31.0759C23.243 31.5557 21.9952 31.6844 20.7915 31.4452C19.5878 31.206 18.4836 30.61 17.6222 29.7346L15.1932 27.3053L15.193 18.7281Z" fill="url(#paint15_linear_91_1655)"/>
<path d="M25.5673 27.338C27.1768 27.2259 28.2168 25.5086 28.2168 22.6999V25.3402C28.2201 26.5711 27.8559 27.775 27.1708 28.797C26.4858 29.819 25.5113 30.6126 24.3726 31.0757C23.2478 31.5521 22.0068 31.6818 20.808 31.4482C19.7974 31.2462 18.8529 30.7953 18.0598 30.1363C18.063 30.1366 23.3457 31.9921 25.5673 27.338Z" fill="url(#paint16_linear_91_1655)"/>
<path d="M15.193 18.7281L21.9043 25.4492C25.4293 28.9795 28.2171 27.305 28.2171 22.7001V25.3404C28.2204 26.5714 27.8561 27.7752 27.1711 28.7972C26.486 29.8192 25.5116 30.6128 24.3728 31.0759C23.4075 31.4848 22.3536 31.6392 21.3118 31.5242C24.1983 31.5605 24.2575 29.0817 22.0984 27.539C21.3777 27.0215 17.5465 23.3361 15.1932 21.0553L15.193 18.7281Z" fill="url(#paint17_linear_91_1655)"/>
<path d="M25.5673 27.338C27.1768 27.2259 28.2168 25.5086 28.2168 22.6999V25.3402C28.2201 26.5711 27.8559 27.775 27.1708 28.797C26.4858 29.819 25.5113 30.6126 24.3726 31.0757C23.4072 31.4846 22.3534 31.639 21.3116 31.524C23.0231 31.5471 23.7373 30.6835 23.5892 29.6581C24.4559 29.0893 25.1422 28.2843 25.5673 27.338V27.338Z" fill="#E1007F"/>
<defs>
<linearGradient id="paint0_linear_91_1655" x1="11.1076" y1="24.2724" x2="11.1076" y2="2.32374" gradientUnits="userSpaceOnUse">
<stop stop-color="#008DD3"/>
<stop offset="1" stop-color="#024683"/>
</linearGradient>
<linearGradient id="paint1_linear_91_1655" x1="7.62355" y1="24.2723" x2="7.62355" y2="2.32374" gradientUnits="userSpaceOnUse">
<stop stop-color="#007CC4"/>
<stop offset="1" stop-color="#2D4994"/>
</linearGradient>
<linearGradient id="paint2_linear_91_1655" x1="11.8413" y1="24.2724" x2="11.8413" y2="2.32373" gradientUnits="userSpaceOnUse">
<stop stop-color="#006EB8"/>
<stop offset="1" stop-color="#384399"/>
</linearGradient>
<linearGradient id="paint3_linear_91_1655" x1="9.11614" y1="24.2723" x2="9.11614" y2="2.32374" gradientUnits="userSpaceOnUse">
<stop stop-color="#0073BC"/>
<stop offset="1" stop-color="#1E50A2"/>
</linearGradient>
<linearGradient id="paint4_linear_91_1655" x1="9.77023" y1="20.637" x2="9.77023" y2="5.96372" gradientUnits="userSpaceOnUse">
<stop stop-color="#1D5CA4"/>
<stop offset="1" stop-color="#043591"/>
</linearGradient>
<linearGradient id="paint5_linear_91_1655" x1="11.3674" y1="20.637" x2="11.3674" y2="5.96372" gradientUnits="userSpaceOnUse">
<stop stop-color="#265FAC"/>
<stop offset="1" stop-color="#004098"/>
</linearGradient>
<linearGradient id="paint6_linear_91_1655" x1="8.23282" y1="5.43862" x2="19.0065" y2="15.1145" gradientUnits="userSpaceOnUse">
<stop stop-color="#006DB9"/>
<stop offset="1" stop-color="#024683"/>
</linearGradient>
<linearGradient id="paint7_linear_91_1655" x1="8.23179" y1="5.43987" x2="19.0057" y2="15.116" gradientUnits="userSpaceOnUse">
<stop stop-color="#2465AA"/>
<stop offset="1" stop-color="#0E4391"/>
</linearGradient>
<linearGradient id="paint8_linear_91_1655" x1="7.71043" y1="5.69948" x2="17.3523" y2="15.5477" gradientUnits="userSpaceOnUse">
<stop stop-color="#005AAB"/>
<stop offset="1" stop-color="#0E4391"/>
</linearGradient>
<linearGradient id="paint9_linear_91_1655" x1="21.7049" y1="8.88482" x2="21.7049" y2="30.834" gradientUnits="userSpaceOnUse">
<stop stop-color="#DF4693"/>
<stop offset="1" stop-color="#8F2982"/>
</linearGradient>
<linearGradient id="paint10_linear_91_1655" x1="25.1888" y1="8.88481" x2="25.1888" y2="30.834" gradientUnits="userSpaceOnUse">
<stop stop-color="#E85197"/>
<stop offset="1" stop-color="#BE3E91"/>
</linearGradient>
<linearGradient id="paint11_linear_91_1655" x1="20.971" y1="8.88482" x2="20.971" y2="30.834" gradientUnits="userSpaceOnUse">
<stop stop-color="#C9318C"/>
<stop offset="1" stop-color="#90246B"/>
</linearGradient>
<linearGradient id="paint12_linear_91_1655" x1="23.6962" y1="8.88481" x2="23.6962" y2="30.834" gradientUnits="userSpaceOnUse">
<stop stop-color="#DC4291"/>
<stop offset="1" stop-color="#B02F8C"/>
</linearGradient>
<linearGradient id="paint13_linear_91_1655" x1="23.0421" y1="12.5203" x2="23.0421" y2="27.1939" gradientUnits="userSpaceOnUse">
<stop stop-color="#B61185"/>
<stop offset="1" stop-color="#90225F"/>
</linearGradient>
<linearGradient id="paint14_linear_91_1655" x1="21.4449" y1="12.5203" x2="21.4449" y2="27.1939" gradientUnits="userSpaceOnUse">
<stop stop-color="#971B63"/>
<stop offset="1" stop-color="#902057"/>
</linearGradient>
<linearGradient id="paint15_linear_91_1655" x1="653952" y1="39706.5" x2="657179" y2="36761.2" gradientUnits="userSpaceOnUse">
<stop stop-color="#DF4693"/>
<stop offset="1" stop-color="#8F2982"/>
</linearGradient>
<linearGradient id="paint16_linear_91_1655" x1="24.5808" y1="27.7178" x2="13.8066" y2="18.0415" gradientUnits="userSpaceOnUse">
<stop stop-color="#E74D96"/>
<stop offset="1" stop-color="#A7358E"/>
</linearGradient>
<linearGradient id="paint17_linear_91_1655" x1="25.1019" y1="27.4582" x2="15.4598" y2="17.6097" gradientUnits="userSpaceOnUse">
<stop stop-color="#E85298"/>
<stop offset="1" stop-color="#9B2A8B"/>
</linearGradient>
</defs>
</svg>
